<?xml version="1.0" encoding="utf-8"?>
<!-- Generator: Adobe Illustrator 27.9.0, SVG Export Plug-In . SVG Version: 6.00 Build 0)  -->
<svg version="1.1" id="Layer_1" xmlns="http://www.w3.org/2000/svg" xmlns:xlink="http://www.w3.org/1999/xlink" x="0px" y="0px"
	 viewBox="0 0 32 32" style="enable-background:new 0 0 32 32;" xml:space="preserve">
<path style="fill-rule:evenodd;clip-rule:evenodd;fill:#408020;stroke:#408020;stroke-width:0.7476;stroke-linecap:round;stroke-linejoin:round;" d="
	M10.295,24.975c4.129-2.595,0.795-7.589-2.692-5.631c-0.003-4.03-6.631-4.525-6.637,0.216c-0.006,4.327-0.001,7.588,0.006,11.304
	L10.295,24.975z"/>
<path style="fill:#408020;stroke:#FFFFFF;stroke-width:0.7476;stroke-linecap:round;stroke-linejoin:round;" d="M4.105,19.322
	c-0.007,1.653,2.236,1.605,2.236,0c0.001-3.185-4.606-3.208-4.613,0.167c-0.004,1.86-0.004,7.662-0.002,9.994l8.278-5.218
	c2.859-1.781,0.978-5.471-1.887-3.898c-1.364,0.749-0.405,2.727,1.109,1.887"/>
<polygon style="fill-rule:evenodd;clip-rule:evenodd;fill:#FFFFFF;stroke:#408020;stroke-width:0.7476;stroke-linecap:round;stroke-linejoin:round;" points="
	7.607,14.534 11.663,12.247 11.663,17.017 7.607,19.304 "/>
<g>
	<polygon style="fill:#408020;" points="15.715,26.786 24.285,26.786 24.285,23.929 21.428,21.072 21.428,19.644 24.285,16.787 
		24.285,13.216 15.715,13.216 15.715,16.787 18.572,19.644 18.572,21.072 15.715,23.929 	"/>
	<path style="fill:none;stroke:#408020;stroke-width:0.7142;stroke-miterlimit:10;" d="M15.715,26.786v-2.143
		c0-0.457,0.181-0.896,0.505-1.219l1.847-1.847c0.324-0.324,0.505-0.762,0.505-1.219l0,0c0-0.457-0.181-0.896-0.505-1.219
		l-1.847-1.847c-0.324-0.324-0.505-0.762-0.505-1.219v-2.857h8.57v2.857c0,0.457-0.181,0.896-0.505,1.219l-1.847,1.847
		c-0.324,0.324-0.505,0.762-0.505,1.219l0,0c0,0.457,0.181,0.896,0.505,1.219l1.847,1.847c0.324,0.324,0.505,0.762,0.505,1.219
		v2.143"/>
	<path style="fill:#FFFFFF;stroke:#408020;stroke-width:0.5356;stroke-miterlimit:10;" d="M15.715,11.788h8.57
		c0.394,0,0.714,0.32,0.714,0.714l0,0c0,0.394-0.32,0.714-0.714,0.714h-8.57c-0.394,0-0.714-0.32-0.714-0.714l0,0
		C15.001,12.108,15.321,11.788,15.715,11.788z"/>
	<path style="fill:#FFFFFF;stroke:#408020;stroke-width:0.5356;stroke-miterlimit:10;" d="M15.715,26.786h8.57
		c0.394,0,0.714,0.32,0.714,0.714l0,0c0,0.394-0.32,0.714-0.714,0.714h-8.57c-0.394,0-0.714-0.32-0.714-0.714l0,0
		C15.001,27.106,15.321,26.786,15.715,26.786z"/>
	<g>
		
			<line style="fill:none;stroke:#FFFFFF;stroke-width:0.7142;stroke-linecap:round;stroke-miterlimit:10;" x1="20" y1="18.93" x2="20" y2="18.93"/>
		
			<line style="fill:none;stroke:#FFFFFF;stroke-width:0.7142;stroke-linecap:round;stroke-miterlimit:10;" x1="20.714" y1="18.216" x2="20.714" y2="18.216"/>
		
			<line style="fill:none;stroke:#FFFFFF;stroke-width:0.7142;stroke-linecap:round;stroke-miterlimit:10;" x1="20.714" y1="15.716" x2="20.714" y2="15.716"/>
		
			<line style="fill:none;stroke:#FFFFFF;stroke-width:0.7142;stroke-linecap:round;stroke-miterlimit:10;" x1="19.261" y1="15.716" x2="19.261" y2="15.716"/>
		
			<line style="fill:none;stroke:#FFFFFF;stroke-width:0.7142;stroke-linecap:round;stroke-miterlimit:10;" x1="20" y1="15.002" x2="20" y2="15.002"/>
		
			<line style="fill:none;stroke:#FFFFFF;stroke-width:0.7142;stroke-linecap:round;stroke-miterlimit:10;" x1="18.572" y1="15.002" x2="18.572" y2="15.002"/>
		
			<line style="fill:none;stroke:#FFFFFF;stroke-width:0.7142;stroke-linecap:round;stroke-miterlimit:10;" x1="19.286" y1="14.288" x2="19.286" y2="14.288"/>
		
			<line style="fill:none;stroke:#FFFFFF;stroke-width:0.7142;stroke-linecap:round;stroke-miterlimit:10;" x1="20.714" y1="14.288" x2="20.714" y2="14.288"/>
		
			<line style="fill:none;stroke:#FFFFFF;stroke-width:0.7142;stroke-linecap:round;stroke-miterlimit:10;" x1="21.428" y1="15.002" x2="21.428" y2="15.002"/>
		
			<line style="fill:none;stroke:#FFFFFF;stroke-width:0.7142;stroke-linecap:round;stroke-miterlimit:10;" x1="22.143" y1="14.288" x2="22.143" y2="14.288"/>
		
			<line style="fill:none;stroke:#FFFFFF;stroke-width:0.7142;stroke-linecap:round;stroke-miterlimit:10;" x1="22.857" y1="13.573" x2="22.857" y2="13.573"/>
		
			<line style="fill:none;stroke:#FFFFFF;stroke-width:0.7142;stroke-linecap:round;stroke-miterlimit:10;" x1="21.488" y1="13.573" x2="21.488" y2="13.573"/>
		
			<line style="fill:none;stroke:#FFFFFF;stroke-width:0.7142;stroke-linecap:round;stroke-miterlimit:10;" x1="20" y1="13.573" x2="20" y2="13.573"/>
		
			<line style="fill:none;stroke:#FFFFFF;stroke-width:0.7142;stroke-linecap:round;stroke-miterlimit:10;" x1="18.572" y1="13.573" x2="18.572" y2="13.573"/>
		
			<line style="fill:none;stroke:#FFFFFF;stroke-width:0.7142;stroke-linecap:round;stroke-miterlimit:10;" x1="17.143" y1="13.573" x2="17.143" y2="13.573"/>
		
			<line style="fill:none;stroke:#FFFFFF;stroke-width:0.7142;stroke-linecap:round;stroke-miterlimit:10;" x1="17.143" y1="26.429" x2="17.143" y2="26.429"/>
		
			<line style="fill:none;stroke:#FFFFFF;stroke-width:0.7142;stroke-linecap:round;stroke-miterlimit:10;" x1="18.572" y1="26.429" x2="18.572" y2="26.429"/>
		
			<line style="fill:none;stroke:#FFFFFF;stroke-width:0.7142;stroke-linecap:round;stroke-miterlimit:10;" x1="20" y1="26.429" x2="20" y2="26.429"/>
		
			<line style="fill:none;stroke:#FFFFFF;stroke-width:0.7142;stroke-linecap:round;stroke-miterlimit:10;" x1="21.428" y1="26.429" x2="21.428" y2="26.429"/>
		
			<line style="fill:none;stroke:#FFFFFF;stroke-width:0.7142;stroke-linecap:round;stroke-miterlimit:10;" x1="22.857" y1="26.429" x2="22.857" y2="26.429"/>
		
			<line style="fill:none;stroke:#FFFFFF;stroke-width:0.7142;stroke-linecap:round;stroke-miterlimit:10;" x1="17.857" y1="25.714" x2="17.857" y2="25.714"/>
		
			<line style="fill:none;stroke:#FFFFFF;stroke-width:0.7142;stroke-linecap:round;stroke-miterlimit:10;" x1="19.286" y1="25.714" x2="19.286" y2="25.714"/>
		
			<line style="fill:none;stroke:#FFFFFF;stroke-width:0.7142;stroke-linecap:round;stroke-miterlimit:10;" x1="20.714" y1="25.714" x2="20.714" y2="25.714"/>
		
			<line style="fill:none;stroke:#FFFFFF;stroke-width:0.7142;stroke-linecap:round;stroke-miterlimit:10;" x1="22.143" y1="25.714" x2="22.143" y2="25.714"/>
		
			<line style="fill:none;stroke:#FFFFFF;stroke-width:0.7142;stroke-linecap:round;stroke-miterlimit:10;" x1="18.572" y1="25" x2="18.572" y2="25"/>
		
			<line style="fill:none;stroke:#FFFFFF;stroke-width:0.7142;stroke-linecap:round;stroke-miterlimit:10;" x1="20" y1="25" x2="20" y2="25"/>
		
			<line style="fill:none;stroke:#FFFFFF;stroke-width:0.7142;stroke-linecap:round;stroke-miterlimit:10;" x1="19.286" y1="24.286" x2="19.286" y2="24.286"/>
		
			<line style="fill:none;stroke:#FFFFFF;stroke-width:0.7142;stroke-linecap:round;stroke-miterlimit:10;" x1="20.714" y1="24.286" x2="20.714" y2="24.286"/>
		
			<line style="fill:none;stroke:#FFFFFF;stroke-width:0.7142;stroke-linecap:round;stroke-miterlimit:10;" x1="20" y1="23.572" x2="20" y2="23.572"/>
		
			<line style="fill:none;stroke:#FFFFFF;stroke-width:0.7142;stroke-linecap:round;stroke-miterlimit:10;" x1="21.428" y1="25" x2="21.428" y2="25"/>
		
			<line style="fill:none;stroke:#FFFFFF;stroke-width:0.7142;stroke-linecap:round;stroke-miterlimit:10;" x1="20" y1="20.358" x2="20" y2="20.358"/>
		
			<line style="fill:none;stroke:#FFFFFF;stroke-width:0.7142;stroke-linecap:round;stroke-miterlimit:10;" x1="17.837" y1="14.288" x2="17.838" y2="14.288"/>
	</g>
	<g>
		<path style="fill:none;stroke:#FFFFFF;stroke-width:0.5356;stroke-miterlimit:10;" d="M23.928,27.5v-2.857
			c0-0.365-0.142-0.709-0.4-0.967l-1.847-1.847c-0.393-0.393-0.61-0.916-0.61-1.472c0-0.556,0.216-1.079,0.61-1.472l1.847-1.847
			c0.258-0.258,0.4-0.602,0.4-0.967v-3.571"/>
		<path style="fill:none;stroke:#FFFFFF;stroke-width:0.5356;stroke-miterlimit:10;" d="M16.072,12.502v3.571
			c0,0.365,0.142,0.709,0.4,0.967l1.847,1.847c0.393,0.393,0.61,0.916,0.61,1.472c0,0.556-0.217,1.078-0.61,1.472l-1.847,1.847
			c-0.258,0.258-0.4,0.601-0.4,0.967V27.5"/>
	</g>
	
		<line style="fill:none;stroke:#FFFFFF;stroke-width:0.7142;stroke-linecap:round;stroke-miterlimit:10;" x1="20" y1="17.01" x2="20" y2="17.01"/>
</g>
</svg>
