<?xml version="1.0" encoding="utf-8"?>
<!-- Generator: Adobe Illustrator 27.9.0, SVG Export Plug-In . SVG Version: 6.00 Build 0)  -->
<svg version="1.1" id="layer" xmlns="http://www.w3.org/2000/svg" xmlns:xlink="http://www.w3.org/1999/xlink" x="0px" y="0px"
	 viewBox="0 0 32 32" style="enable-background:new 0 0 32 32;" xml:space="preserve">
<g>
	
		<path style="fill:#FFFFFF;stroke:#408020;stroke-width:0.5381;stroke-linecap:round;stroke-linejoin:round;stroke-miterlimit:10;" d="
		M18.737,26.72H5.177c-0.397,0-0.72-0.322-0.72-0.72l0,0c0-0.397,0.322-0.72,0.72-0.72h13.561c0.397,0,0.72,0.322,0.72,0.72l0,0
		C19.457,26.397,19.135,26.72,18.737,26.72z"/>
	<g>
		
			<path style="fill:#3F7F1F;stroke:#3F7F1F;stroke-width:2.4913;stroke-linecap:round;stroke-linejoin:round;stroke-miterlimit:10;" d="
			M5.406,27.208c1.136,0,1.694,1.026,1.276,1.883c-0.349,0.658-1.425,0.877-2.093,0.209s-2.714-3.298-2.714-3.298v-0.003
			c0,0,2.046-2.631,2.714-3.298s1.744-0.448,2.093,0.209c0.419,0.857-0.14,1.883-1.276,1.883"/>
		
			<path style="fill:none;stroke:#FFFFFF;stroke-width:0.8371;stroke-linecap:round;stroke-linejoin:round;stroke-miterlimit:10;" d="
			M5.406,27.208c1.136,0,1.694,1.026,1.276,1.883c-0.349,0.658-1.425,0.877-2.093,0.209s-2.714-3.298-2.714-3.298v-0.003
			c0,0,2.046-2.631,2.714-3.298s1.744-0.448,2.093,0.209c0.419,0.857-0.14,1.883-1.276,1.883"/>
	</g>
	<g>
		
			<path style="fill:#3F7F1F;stroke:#3F7F1F;stroke-width:2.4913;stroke-linecap:round;stroke-linejoin:round;stroke-miterlimit:10;" d="
			M18.636,27.208c-1.136,0-1.694,1.026-1.276,1.883c0.349,0.658,1.425,0.877,2.093,0.209s2.714-3.298,2.714-3.298v-0.003
			c0,0-2.046-2.631-2.714-3.298s-1.744-0.448-2.093,0.209c-0.419,0.857,0.14,1.883,1.276,1.883"/>
		
			<path style="fill:none;stroke:#FFFFFF;stroke-width:0.8371;stroke-linecap:round;stroke-linejoin:round;stroke-miterlimit:10;" d="
			M18.636,27.208c-1.136,0-1.694,1.026-1.276,1.883c0.349,0.658,1.425,0.877,2.093,0.209s2.714-3.298,2.714-3.298v-0.003
			c0,0-2.046-2.631-2.714-3.298s-1.744-0.448-2.093,0.209c-0.419,0.857,0.14,1.883,1.276,1.883"/>
	</g>
</g>
</svg>
