<?xml version="1.0" encoding="utf-8"?>
<!-- Generator: Adobe Illustrator 27.9.0, SVG Export Plug-In . SVG Version: 6.00 Build 0)  -->
<svg version="1.1" id="Layer_2" xmlns="http://www.w3.org/2000/svg" xmlns:xlink="http://www.w3.org/1999/xlink" x="0px" y="0px"
	 viewBox="0 0 32 32" style="enable-background:new 0 0 32 32;" xml:space="preserve">
<path style="fill:#FFFFFE;stroke:#408020;stroke-linecap:round;stroke-linejoin:round;stroke-miterlimit:10;" d="M26.739,10.091
	c0-2.473-4.477-9.194-4.477-9.194s-4.477,6.721-4.477,9.194s2.005,4.477,4.477,4.477S26.739,12.564,26.739,10.091z"/>
<circle style="fill:#408020;" cx="22.283" cy="10.097" r="2.02"/>
<g>
	<path style="fill:#FFFFFE;stroke:#408020;stroke-linecap:round;stroke-linejoin:round;stroke-miterlimit:10;" d="M14.562,20.734
		v2.676c0,0,0,1.338,1.338,1.338c1.338,0,1.338-1.338,1.338-1.338v-6.355c0,0,0.669-6.69-6.021-6.69c0,0-2.461-0.131-4.683,2.007
		l-4.682,5.351c0,0-1.338,1.338,0,2.676c0,0,1.003,1.003,2.676-0.669l1.162-1.162c0.312-0.312,0.845-0.091,0.845,0.35v10.846
		c0,0,0,1.338,1.338,1.338s1.338-1.338,1.338-1.338v-9.031"/>
	<path style="fill:#FFFFFE;stroke:#408020;stroke-linecap:round;stroke-linejoin:round;stroke-miterlimit:10;" d="M9.211,20.734
		v4.014c0,0,0,1.338,1.338,1.338s1.338-1.338,1.338-1.338v-4.014"/>
	<path style="fill:#FFFFFE;stroke:#408020;stroke-linecap:round;stroke-linejoin:round;stroke-miterlimit:10;" d="M11.887,20.734
		v3.345c0,0,0,1.338,1.338,1.338s1.338-1.338,1.338-1.338v-3.345"/>
</g>
</svg>
