<?xml version="1.0" encoding="utf-8"?>
<!-- Generator: Adobe Illustrator 27.9.0, SVG Export Plug-In . SVG Version: 6.00 Build 0)  -->
<svg version="1.1" id="Layer_1" xmlns="http://www.w3.org/2000/svg" xmlns:xlink="http://www.w3.org/1999/xlink" x="0px" y="0px"
	 viewBox="0 0 32 32" style="enable-background:new 0 0 32 32;" xml:space="preserve">
<path style="fill:#FFFFFF;stroke:#408020;stroke-linecap:round;stroke-linejoin:round;stroke-miterlimit:10;" d="M17,23
	c0-4.411-3.589-8-8-8s-8,3.589-8,8s3.589,8,8,8S17,27.411,17,23z M9,29c-1.245,0-2.403-0.382-3.363-1.034l8.329-8.329
	C14.618,20.597,15,21.755,15,23C15,26.309,12.309,29,9,29z M9,17c1.342,0,2.579,0.448,3.579,1.196l-8.384,8.383
	C3.448,25.579,3,24.342,3,23C3,19.691,5.691,17,9,17z"/>
</svg>
