<?xml version="1.0" encoding="utf-8"?>
<!-- Generator: Adobe Illustrator 27.9.0, SVG Export Plug-In . SVG Version: 6.00 Build 0)  -->
<svg version="1.1" id="Layer_1" xmlns="http://www.w3.org/2000/svg" xmlns:xlink="http://www.w3.org/1999/xlink" x="0px" y="0px"
	 viewBox="0 0 32 32" style="enable-background:new 0 0 32 32;" xml:space="preserve">
<polygon style="fill:#FFFFFF;" points="10,25.5 22,25.5 22,21.5 18,17.5 18,15.5 22,11.5 22,6.5 10,6.5 10,11.5 14,15.5 14,17.5 
	10,21.5 "/>
<path style="fill:none;stroke:#408020;stroke-miterlimit:10;" d="M22,25.5v-3c0-0.64-0.254-1.254-0.707-1.707l-2.586-2.586
	C18.254,17.754,18,17.14,18,16.5l0,0c0-0.64,0.254-1.254,0.707-1.707l2.586-2.586C21.746,11.754,22,11.14,22,10.5v-4"/>
<path style="fill:none;stroke:#408020;stroke-miterlimit:10;" d="M10,6.5v4c0,0.64,0.254,1.254,0.707,1.707l2.586,2.586
	C13.746,15.246,14,15.86,14,16.5l0,0c0,0.64-0.254,1.254-0.707,1.707l-2.586,2.586C10.254,21.246,10,21.86,10,22.5v3"/>
<path style="fill:#FFFFFF;stroke:#408020;stroke-miterlimit:10;" d="M10,4.5h12c0.552,0,1,0.448,1,1l0,0c0,0.552-0.448,1-1,1H10
	c-0.552,0-1-0.448-1-1l0,0C9,4.948,9.448,4.5,10,4.5z"/>
<path style="fill:#FFFFFF;stroke:#408020;stroke-miterlimit:10;" d="M10,25.5h12c0.552,0,1,0.448,1,1l0,0c0,0.552-0.448,1-1,1H10
	c-0.552,0-1-0.448-1-1l0,0C9,25.948,9.448,25.5,10,25.5z"/>
<line style="fill:none;stroke:#408020;stroke-linecap:round;stroke-miterlimit:10;" x1="16" y1="14.5" x2="16" y2="14.5"/>
<line style="fill:none;stroke:#408020;stroke-linecap:round;stroke-miterlimit:10;" x1="17" y1="13.5" x2="17" y2="13.5"/>
<line style="fill:none;stroke:#408020;stroke-linecap:round;stroke-miterlimit:10;" x1="17" y1="11.5" x2="17" y2="11.5"/>
<line style="fill:none;stroke:#408020;stroke-linecap:round;stroke-miterlimit:10;" x1="14.965" y1="11.5" x2="14.965" y2="11.5"/>
<line style="fill:none;stroke:#408020;stroke-linecap:round;stroke-miterlimit:10;" x1="16" y1="10.5" x2="16" y2="10.5"/>
<line style="fill:none;stroke:#408020;stroke-linecap:round;stroke-miterlimit:10;" x1="14" y1="10.5" x2="14" y2="10.5"/>
<line style="fill:none;stroke:#408020;stroke-linecap:round;stroke-miterlimit:10;" x1="15" y1="9.5" x2="15" y2="9.5"/>
<line style="fill:none;stroke:#408020;stroke-linecap:round;stroke-miterlimit:10;" x1="17" y1="9.5" x2="17" y2="9.5"/>
<line style="fill:none;stroke:#408020;stroke-linecap:round;stroke-miterlimit:10;" x1="18" y1="10.5" x2="18" y2="10.5"/>
<line style="fill:none;stroke:#408020;stroke-linecap:round;stroke-miterlimit:10;" x1="19" y1="9.5" x2="19" y2="9.5"/>
<line style="fill:none;stroke:#408020;stroke-linecap:round;stroke-miterlimit:10;" x1="20" y1="8.5" x2="20" y2="8.5"/>
<line style="fill:none;stroke:#408020;stroke-linecap:round;stroke-miterlimit:10;" x1="18.083" y1="8.5" x2="18.083" y2="8.5"/>
<line style="fill:none;stroke:#408020;stroke-linecap:round;stroke-miterlimit:10;" x1="16" y1="8.5" x2="16" y2="8.5"/>
<line style="fill:none;stroke:#408020;stroke-linecap:round;stroke-miterlimit:10;" x1="14" y1="8.5" x2="14" y2="8.5"/>
<line style="fill:none;stroke:#408020;stroke-linecap:round;stroke-miterlimit:10;" x1="12" y1="8.5" x2="12" y2="8.5"/>
<line style="fill:none;stroke:#408020;stroke-linecap:round;stroke-miterlimit:10;" x1="12" y1="23.5" x2="12" y2="23.5"/>
<line style="fill:none;stroke:#408020;stroke-linecap:round;stroke-miterlimit:10;" x1="14" y1="23.5" x2="14" y2="23.5"/>
<line style="fill:none;stroke:#408020;stroke-linecap:round;stroke-miterlimit:10;" x1="16" y1="23.5" x2="16" y2="23.5"/>
<line style="fill:none;stroke:#408020;stroke-linecap:round;stroke-miterlimit:10;" x1="18" y1="23.5" x2="18" y2="23.5"/>
<line style="fill:none;stroke:#408020;stroke-linecap:round;stroke-miterlimit:10;" x1="20" y1="23.5" x2="20" y2="23.5"/>
<line style="fill:none;stroke:#408020;stroke-linecap:round;stroke-miterlimit:10;" x1="13" y1="22.5" x2="13" y2="22.5"/>
<line style="fill:none;stroke:#408020;stroke-linecap:round;stroke-miterlimit:10;" x1="15" y1="22.5" x2="15" y2="22.5"/>
<line style="fill:none;stroke:#408020;stroke-linecap:round;stroke-miterlimit:10;" x1="17" y1="22.5" x2="17" y2="22.5"/>
<line style="fill:none;stroke:#408020;stroke-linecap:round;stroke-miterlimit:10;" x1="19" y1="22.5" x2="19" y2="22.5"/>
<line style="fill:none;stroke:#408020;stroke-linecap:round;stroke-miterlimit:10;" x1="14" y1="21.5" x2="14" y2="21.5"/>
<line style="fill:none;stroke:#408020;stroke-linecap:round;stroke-miterlimit:10;" x1="16" y1="21.5" x2="16" y2="21.5"/>
<line style="fill:none;stroke:#408020;stroke-linecap:round;stroke-miterlimit:10;" x1="15" y1="20.5" x2="15" y2="20.5"/>
<line style="fill:none;stroke:#408020;stroke-linecap:round;stroke-miterlimit:10;" x1="17" y1="20.5" x2="17" y2="20.5"/>
<line style="fill:none;stroke:#408020;stroke-linecap:round;stroke-miterlimit:10;" x1="16" y1="19.5" x2="16" y2="19.5"/>
<line style="fill:none;stroke:#408020;stroke-linecap:round;stroke-miterlimit:10;" x1="18" y1="21.5" x2="18" y2="21.5"/>
<line style="fill:none;stroke:#408020;stroke-linecap:round;stroke-miterlimit:10;" x1="16" y1="16.5" x2="16" y2="16.5"/>
<line style="fill:none;stroke:#408020;stroke-linecap:round;stroke-miterlimit:10;" x1="12.972" y1="9.5" x2="12.973" y2="9.5"/>
</svg>
