<?xml version="1.0" encoding="utf-8"?>
<!-- Generator: Adobe Illustrator 27.9.0, SVG Export Plug-In . SVG Version: 6.00 Build 0)  -->
<svg version="1.1" id="Layer_1" xmlns="http://www.w3.org/2000/svg" xmlns:xlink="http://www.w3.org/1999/xlink" x="0px" y="0px"
	 viewBox="0 0 32 32" style="enable-background:new 0 0 32 32;" xml:space="preserve">
<polygon style="fill:#408020;" points="10,25.5 22,25.5 22,21.5 18,17.5 18,15.5 22,11.5 22,6.5 10,6.5 10,11.5 14,15.5 14,17.5 
	10,21.5 "/>
<path style="fill:none;stroke:#408020;stroke-miterlimit:10;" d="M10,25.5v-3c0-0.64,0.254-1.254,0.707-1.707l2.586-2.586
	C13.746,17.754,14,17.14,14,16.5l0,0c0-0.64-0.254-1.254-0.707-1.707l-2.586-2.586C10.254,11.754,10,11.14,10,10.5v-4h12v4
	c0,0.64-0.254,1.254-0.707,1.707l-2.586,2.586C18.254,15.246,18,15.86,18,16.5l0,0c0,0.64,0.254,1.254,0.707,1.707l2.586,2.586
	C21.746,21.246,22,21.86,22,22.5v3"/>
<path style="fill:#FFFFFF;stroke:#408020;stroke-width:0.75;stroke-miterlimit:10;" d="M10,4.5h12c0.552,0,1,0.448,1,1l0,0
	c0,0.552-0.448,1-1,1H10c-0.552,0-1-0.448-1-1l0,0C9,4.948,9.448,4.5,10,4.5z"/>
<path style="fill:#FFFFFF;stroke:#408020;stroke-width:0.75;stroke-miterlimit:10;" d="M10,25.5h12c0.552,0,1,0.448,1,1l0,0
	c0,0.552-0.448,1-1,1H10c-0.552,0-1-0.448-1-1l0,0C9,25.948,9.448,25.5,10,25.5z"/>
<g>
	<line style="fill:none;stroke:#FFFFFF;stroke-linecap:round;stroke-miterlimit:10;" x1="16" y1="14.5" x2="16" y2="14.5"/>
	<line style="fill:none;stroke:#FFFFFF;stroke-linecap:round;stroke-miterlimit:10;" x1="17" y1="13.5" x2="17" y2="13.5"/>
	<line style="fill:none;stroke:#FFFFFF;stroke-linecap:round;stroke-miterlimit:10;" x1="17" y1="10" x2="17" y2="10"/>
	<line style="fill:none;stroke:#FFFFFF;stroke-linecap:round;stroke-miterlimit:10;" x1="14.965" y1="10" x2="14.965" y2="10"/>
	<line style="fill:none;stroke:#FFFFFF;stroke-linecap:round;stroke-miterlimit:10;" x1="16" y1="9" x2="16" y2="9"/>
	<line style="fill:none;stroke:#FFFFFF;stroke-linecap:round;stroke-miterlimit:10;" x1="14" y1="9" x2="14" y2="9"/>
	<line style="fill:none;stroke:#FFFFFF;stroke-linecap:round;stroke-miterlimit:10;" x1="15" y1="8" x2="15" y2="8"/>
	<line style="fill:none;stroke:#FFFFFF;stroke-linecap:round;stroke-miterlimit:10;" x1="17" y1="8" x2="17" y2="8"/>
	<line style="fill:none;stroke:#FFFFFF;stroke-linecap:round;stroke-miterlimit:10;" x1="18" y1="9" x2="18" y2="9"/>
	<line style="fill:none;stroke:#FFFFFF;stroke-linecap:round;stroke-miterlimit:10;" x1="19" y1="8" x2="19" y2="8"/>
	<line style="fill:none;stroke:#FFFFFF;stroke-linecap:round;stroke-miterlimit:10;" x1="20" y1="7" x2="20" y2="7"/>
	<line style="fill:none;stroke:#FFFFFF;stroke-linecap:round;stroke-miterlimit:10;" x1="18.083" y1="7" x2="18.083" y2="7"/>
	<line style="fill:none;stroke:#FFFFFF;stroke-linecap:round;stroke-miterlimit:10;" x1="16" y1="7" x2="16" y2="7"/>
	<line style="fill:none;stroke:#FFFFFF;stroke-linecap:round;stroke-miterlimit:10;" x1="14" y1="7" x2="14" y2="7"/>
	<line style="fill:none;stroke:#FFFFFF;stroke-linecap:round;stroke-miterlimit:10;" x1="12" y1="7" x2="12" y2="7"/>
	<line style="fill:none;stroke:#FFFFFF;stroke-linecap:round;stroke-miterlimit:10;" x1="12" y1="25" x2="12" y2="25"/>
	<line style="fill:none;stroke:#FFFFFF;stroke-linecap:round;stroke-miterlimit:10;" x1="14" y1="25" x2="14" y2="25"/>
	<line style="fill:none;stroke:#FFFFFF;stroke-linecap:round;stroke-miterlimit:10;" x1="16" y1="25" x2="16" y2="25"/>
	<line style="fill:none;stroke:#FFFFFF;stroke-linecap:round;stroke-miterlimit:10;" x1="18" y1="25" x2="18" y2="25"/>
	<line style="fill:none;stroke:#FFFFFF;stroke-linecap:round;stroke-miterlimit:10;" x1="20" y1="25" x2="20" y2="25"/>
	<line style="fill:none;stroke:#FFFFFF;stroke-linecap:round;stroke-miterlimit:10;" x1="13" y1="24" x2="13" y2="24"/>
	<line style="fill:none;stroke:#FFFFFF;stroke-linecap:round;stroke-miterlimit:10;" x1="15" y1="24" x2="15" y2="24"/>
	<line style="fill:none;stroke:#FFFFFF;stroke-linecap:round;stroke-miterlimit:10;" x1="17" y1="24" x2="17" y2="24"/>
	<line style="fill:none;stroke:#FFFFFF;stroke-linecap:round;stroke-miterlimit:10;" x1="19" y1="24" x2="19" y2="24"/>
	<line style="fill:none;stroke:#FFFFFF;stroke-linecap:round;stroke-miterlimit:10;" x1="14" y1="23" x2="14" y2="23"/>
	<line style="fill:none;stroke:#FFFFFF;stroke-linecap:round;stroke-miterlimit:10;" x1="16" y1="23" x2="16" y2="23"/>
	<line style="fill:none;stroke:#FFFFFF;stroke-linecap:round;stroke-miterlimit:10;" x1="15" y1="22" x2="15" y2="22"/>
	<line style="fill:none;stroke:#FFFFFF;stroke-linecap:round;stroke-miterlimit:10;" x1="17" y1="22" x2="17" y2="22"/>
	<line style="fill:none;stroke:#FFFFFF;stroke-linecap:round;stroke-miterlimit:10;" x1="16" y1="21" x2="16" y2="21"/>
	<line style="fill:none;stroke:#FFFFFF;stroke-linecap:round;stroke-miterlimit:10;" x1="18" y1="23" x2="18" y2="23"/>
	<line style="fill:none;stroke:#FFFFFF;stroke-linecap:round;stroke-miterlimit:10;" x1="16" y1="16.5" x2="16" y2="16.5"/>
	<line style="fill:none;stroke:#FFFFFF;stroke-linecap:round;stroke-miterlimit:10;" x1="12.972" y1="8" x2="12.973" y2="8"/>
</g>
<g>
	<path style="fill:none;stroke:#FFFFFF;stroke-width:0.75;stroke-miterlimit:10;" d="M21.5,26.5v-4c0-0.512-0.199-0.992-0.561-1.354
		l-2.586-2.586C17.803,18.01,17.5,17.278,17.5,16.5s0.303-1.51,0.854-2.061l2.586-2.586c0.361-0.361,0.561-0.842,0.561-1.354v-5"/>
	<path style="fill:none;stroke:#FFFFFF;stroke-width:0.75;stroke-miterlimit:10;" d="M10.5,5.5v5c0,0.511,0.199,0.992,0.561,1.354
		l2.586,2.586c0.55,0.55,0.854,1.282,0.854,2.061s-0.303,1.51-0.854,2.061l-2.586,2.586C10.699,21.508,10.5,21.988,10.5,22.5v4"/>
</g>
<line style="fill:none;stroke:#FFFFFF;stroke-linecap:round;stroke-miterlimit:10;" x1="16" y1="11.812" x2="16" y2="11.812"/>
</svg>
